<?xml version="1.0" standalone="no"?>
<!DOCTYPE svg PUBLIC "-//W3C//DTD SVG 20010904//EN"
 "http://www.w3.org/TR/2001/REC-SVG-20010904/DTD/svg10.dtd">
<svg version="1.0" xmlns="http://www.w3.org/2000/svg"
 width="198.000000pt" height="198.000000pt" viewBox="0 0 198.000000 198.000000"
 preserveAspectRatio="xMidYMid meet">
<metadata>
Created by potrace 1.11, written by Peter Selinger 2001-2013
</metadata>
<g transform="translate(0.000000,198.000000) scale(0.100000,-0.100000)"
fill="#000000" stroke="none">
<path d="M885 1973 c-345 -39 -659 -273 -796 -593 -61 -143 -74 -213 -74 -395
0 -135 4 -173 23 -244 113 -416 478 -714 901 -735 478 -24 890 280 1012 747
31 118 34 309 8 437 -81 383 -379 683 -764 766 -67 14 -246 24 -310 17z m292
-239 c258 -65 464 -259 549 -519 23 -69 27 -98 28 -215 1 -152 -12 -217 -68
-336 -99 -210 -282 -360 -511 -420 -102 -26 -275 -25 -378 4 -182 52 -334 160
-438 314 -143 210 -170 497 -70 731 82 192 257 353 456 422 130 45 300 52 432
19z"/>
<path d="M594 1467 c-2 -7 -3 -223 -2 -482 l3 -470 245 -3 c340 -4 447 14 523
86 72 68 93 192 48 280 -22 43 -87 98 -128 108 -30 8 -29 20 1 28 37 9 100 77
114 122 38 128 -15 254 -127 302 -75 33 -165 41 -430 41 -179 0 -243 -3 -247
-12z m506 -202 c40 -21 56 -72 36 -118 -8 -20 -25 -41 -37 -48 -13 -6 -76 -14
-141 -17 l-118 -5 0 102 0 101 115 0 c83 0 124 -4 145 -15z m27 -385 c39 -25
55 -89 33 -131 -24 -43 -82 -54 -272 -50 l-48 1 0 101 0 101 133 -4 c92 -2
139 -8 154 -18z"/>
</g>
</svg>
