<?xml version="1.0" standalone="no"?>
<!DOCTYPE svg PUBLIC "-//W3C//DTD SVG 20010904//EN"
 "http://www.w3.org/TR/2001/REC-SVG-20010904/DTD/svg10.dtd">
<svg version="1.0" xmlns="http://www.w3.org/2000/svg"
 width="1004.000000pt" height="1004.000000pt" viewBox="0 0 1004.000000 1004.000000"
 preserveAspectRatio="xMidYMid meet">
<metadata>
Created by potrace 1.11, written by Peter Selinger 2001-2013
</metadata>
<g transform="translate(0.000000,1004.000000) scale(0.100000,-0.100000)"
fill="#000000" stroke="none">
<path d="M4680 10029 c-494 -33 -1022 -151 -1490 -334 -504 -197 -954 -464
-1390 -823 -148 -123 -509 -484 -632 -632 -294 -357 -537 -742 -713 -1130
-723 -1592 -576 -3428 388 -4875 190 -285 362 -491 631 -761 270 -269 476
-441 761 -631 1363 -909 3089 -1095 4615 -498 504 197 954 464 1390 823 148
123 509 484 632 632 428 519 725 1058 928 1685 411 1272 287 2695 -338 3875
-164 311 -457 647 -769 881 -392 295 -846 470 -1363 525 -188 19 -558 15 -748
-10 -463 -61 -874 -178 -1207 -343 -764 -380 -1398 -1076 -1936 -2128 -265
-519 -423 -920 -921 -2342 -161 -458 -295 -830 -299 -825 -4 4 -106 297 -227
652 -121 355 -457 1338 -746 2184 -289 846 -526 1543 -526 1547 0 5 71 9 158
9 l157 0 62 -182 c33 -101 298 -889 587 -1753 289 -863 529 -1577 532 -1585 6
-13 7 -13 11 0 85 249 488 1338 583 1575 252 630 506 1130 802 1574 547 819
1198 1376 1933 1654 286 108 693 203 1065 249 67 8 220 13 425 12 275 0 339
-3 455 -21 276 -43 513 -109 739 -203 l116 -49 -40 35 c-78 69 -257 210 -376
295 -937 669 -2089 994 -3249 918z m-164 -3083 c216 -101 178 -419 -56 -468
-111 -23 -237 45 -277 150 -80 211 131 412 333 318z m1093 9 c101 -35 162
-121 162 -229 0 -74 -16 -118 -61 -170 -149 -169 -430 -60 -430 166 0 69 16
111 60 162 68 77 173 105 269 71z m2364 -899 c174 -40 343 -117 476 -217 68
-51 196 -174 265 -254 l25 -30 1 233 0 232 135 0 135 0 0 -1375 0 -1375 -135
0 -135 0 -2 242 -3 241 -45 -59 c-131 -175 -312 -315 -515 -399 -199 -82 -437
-113 -665 -85 -588 73 -1027 492 -1150 1098 -74 364 -27 768 123 1067 176 352
491 595 873 674 144 30 141 30 354 26 130 -3 218 -9 263 -19z m-3425 -1408
l-3 -1373 -135 0 -135 0 -3 1373 -2 1372 140 0 140 0 -2 -1372z m1112 -803 l0
-2175 -135 0 -135 0 0 2175 0 2175 135 0 135 0 0 -2175z"/>
<path d="M7535 5820 c-229 -32 -433 -137 -595 -307 -172 -178 -274 -386 -316
-641 -20 -120 -14 -388 11 -502 56 -257 174 -472 346 -635 126 -119 272 -201
439 -247 75 -20 106 -23 270 -22 156 0 197 4 262 22 408 112 678 418 772 875
45 215 42 464 -8 659 -105 415 -408 705 -820 783 -100 19 -280 27 -361 15z"/>
</g>
</svg>
